<svg xmlns="http://www.w3.org/2000/svg" viewBox="0 0 400.08 56.31" class="text-primary logo max-w-[11rem]"><path fill="currentColor" d="M40.9 38.31H10.51c.65 6.34 4.97 9.5 10.3 9.5 3.96 0 7.42-1.8 8.78-4.97h10.66C37.3 52.2 29.38 56.31 20.88 56.31 8.5 56.31 0 47.52 0 35.72s8.57-20.74 20.67-20.74c13.1 0 21.24 10.3 20.23 23.33Zm-29.88-7.56h18.93c-1.15-4.32-4.39-7.27-9.36-7.27s-8.28 3.02-9.58 7.27Zm69.13-14.91-13.61 39.6H54.23l-13.61-39.6h10.95l8.78 28.44 8.86-28.44h10.95Zm39.97 22.47H89.73c.65 6.34 4.97 9.5 10.3 9.5 3.96 0 7.42-1.8 8.78-4.97h10.66c-2.95 9.36-10.87 13.47-19.37 13.47-12.39 0-20.88-8.79-20.88-20.59s8.57-20.74 20.67-20.74c13.1 0 21.24 10.3 20.23 23.33Zm-29.88-7.56h18.94c-1.15-4.32-4.39-7.27-9.36-7.27s-8.28 3.02-9.58 7.27Zm71.63-.15v24.84h-10.3V32.83c0-5.18-1.94-8.06-7.42-8.06-5.83 0-8.93 3.38-8.93 9.87v20.81h-10.3V15.84h10.3v5.4c2.88-4.03 6.84-6.26 12.31-6.26 8.93 0 14.33 5.9 14.33 15.62Zm28.93-5.04v-9.72h-14.69V5.04l-10.3 2.23s.09 15.19.09 20.07v14.99c.82 9.82 7.34 13.98 14.74 13.98 3.78 0 7.65-1.09 10.16-2.26v-8.88l-.08-.39c-3.24 1.16-5.97 1.95-8.28 1.95-4.1 0-6.33-2.45-6.33-7.13V25.56h14.69Zm46.08 10.08c0 12.17-7.78 20.67-18.07 20.67-5.62 0-9.72-2.45-12.53-6.19v5.33h-10.3V0h10.3v21.39c2.74-3.82 6.98-6.41 12.53-6.41 10.15 0 18.07 8.42 18.07 20.67Zm-10.44 0c0-6.48-4.25-10.87-10.01-10.87s-10.15 4.39-10.15 10.87 4.39 10.87 10.15 10.87 10.01-4.32 10.01-10.87Zm50.77-19.8v39.6h-10.3v-5.47c-2.88 4.03-6.77 6.34-12.24 6.34-8.71 0-14.11-5.98-14.11-15.63V15.84h10.3v22.61c0 5.19 1.94 8.06 7.27 8.06 5.69 0 8.78-3.38 8.78-9.86V15.84h10.3Zm34.5 29.26c-2.84.98-5.27 1.63-7.36 1.63-4.1 0-6.33-2.45-6.33-7.13V25.56h14.69v-9.72h-14.69V5.04l-10.3 2.23v8.57h-7.06v9.72h7.06v14.62c0 11.37 6.91 16.13 14.83 16.13 3.31 0 6.68-.84 9.16-1.84V45.1ZM316.96 0h10.3v55.44h-10.3V0Zm54.31 38.31h-30.39c.65 6.34 4.97 9.5 10.3 9.5 3.96 0 7.42-1.8 8.78-4.97h10.66c-2.95 9.36-10.87 13.47-19.37 13.47-12.38 0-20.88-8.79-20.88-20.59s8.57-20.74 20.67-20.74c13.11 0 21.24 10.3 20.23 23.33Zm-29.88-7.56h18.94c-1.15-4.32-4.39-7.27-9.36-7.27s-8.28 3.02-9.58 7.27Zm58.69-15.63V25.7c-.79-.07-1.37-.14-2.52-.14-6.55 0-12.17 2.88-12.17 12.24v17.64h-10.3v-39.6h10.3v6.91c2.45-5.18 6.77-7.78 12.38-7.78.94 0 1.66.07 2.3.14Z"></path></svg>